<svg xmlns="http://www.w3.org/2000/svg" width="25" height="25.951" viewBox="0 0 25 25.951">
  <path id="Icon_awesome-arrow-right" data-name="Icon awesome-arrow-right" d="M10.629,4.385l1.239-1.319a1.277,1.277,0,0,1,1.892,0L24.607,14.612a1.486,1.486,0,0,1,0,2.014L13.76,28.179a1.277,1.277,0,0,1-1.892,0L10.629,26.86a1.494,1.494,0,0,1,.022-2.038L17.375,18H1.339A1.381,1.381,0,0,1,0,16.573v-1.9a1.381,1.381,0,0,1,1.339-1.426H17.375L10.652,6.424A1.482,1.482,0,0,1,10.629,4.385Z" transform="translate(0 -2.647)" fill="#583c27"/>
</svg>
