<svg xmlns="http://www.w3.org/2000/svg" width="386.899" height="108.464" viewBox="0 0 386.899 108.464">
  <g id="Group_112" data-name="Group 112" transform="translate(148.899 -1044.821)">
    <path id="Path_17" data-name="Path 17" d="M189,1024S1,884-147.7,1082" transform="translate(0 70.385)" fill="none" stroke="#69e0dc" stroke-width="3" stroke-dasharray="3 10"/>
    <path id="Path_13" data-name="Path 13" d="M33.622,9.208a5.338,5.338,0,0,1-.811,1.619c3.936,2.986,3.091,9.063,1.1,10.886-2.013,1.846-3.815,2.944-6.146,2.421-1.144,2.463-3.434,4.245-5.105,4.431-4.278.475-7.038-.233-8.6-6.615a9.712,9.712,0,0,1-.2-1.119,12.209,12.209,0,0,1-1.917.37,4.7,4.7,0,0,1-1.432,1.737,1.8,1.8,0,0,1-.975,1.407c-.787.48-1.668.471-1.968-.02s.093-1.28.88-1.76a1.762,1.762,0,0,1,1.731-.2,3.62,3.62,0,0,0,.959-1.1c-.3.014-.6.02-.9.013a12.356,12.356,0,0,1-3.952-.738,5.6,5.6,0,0,1-1.748,2.4,1.8,1.8,0,0,1-.975,1.407c-.786.48-1.668.471-1.968-.02s.093-1.28.88-1.76a1.761,1.761,0,0,1,1.73-.2,5.1,5.1,0,0,0,1.461-2.068C2.242,18.81-.076,15.815,0,12.414A8.446,8.446,0,0,1,5.2,5.153,11.907,11.907,0,0,1,11.585,3.53a12.483,12.483,0,0,1,3.014.437C15.49,2.872,17.674.892,22.186.18c6.1-.962,10.62,2.048,11.424,6.182a5.729,5.729,0,0,1-.084,2.7Z" transform="translate(232.527 1145.997) rotate(-169)" fill="#ffdf63" fill-rule="evenodd"/>
  </g>
</svg>
