<svg xmlns="http://www.w3.org/2000/svg" width="320.93" height="290.467" viewBox="0 0 320.93 290.467">
  <g id="Group_111" data-name="Group 111" transform="translate(-1105.4 -866.427)">
    <path id="Path_9" data-name="Path 9" d="M406.705,543.564a7.24,7.24,0,0,0-1.1-2.2c5.339-4.05,4.192-12.293,1.5-14.766-2.731-2.5-5.175-3.993-8.337-3.284-1.552-3.341-4.658-5.759-6.925-6.01-5.8-.644-9.546.316-11.659,8.972a13.173,13.173,0,0,0-.276,1.518,16.559,16.559,0,0,0-2.6-.5,6.379,6.379,0,0,0-1.942-2.356,2.443,2.443,0,0,0-1.322-1.909c-1.067-.651-2.262-.64-2.669.027s.127,1.736,1.193,2.387a2.389,2.389,0,0,0,2.348.276,4.91,4.91,0,0,1,1.3,1.489c-.4-.02-.808-.027-1.218-.018a16.759,16.759,0,0,0-5.36,1,7.6,7.6,0,0,0-2.371-3.253,2.442,2.442,0,0,0-1.322-1.909c-1.066-.651-2.262-.64-2.669.027s.127,1.736,1.194,2.387a2.388,2.388,0,0,0,2.347.276,6.922,6.922,0,0,1,1.981,2.8c-4.653,2.012-7.8,6.075-7.691,10.688.1,4.24,2.915,7.892,7.053,9.849a16.15,16.15,0,0,0,8.659,2.2,16.932,16.932,0,0,0,4.088-.592c1.208,1.484,4.171,4.17,10.29,5.135,8.267,1.305,14.4-2.778,15.5-8.385a7.771,7.771,0,0,0-.113-3.665Z" transform="matrix(0.966, 0.259, -0.259, 0.966, 900.521, 273.441)" fill="#ffdf63" fill-rule="evenodd"/>
    <path id="Path_16" data-name="Path 16" d="M1143.7,937.3s12.9,223.3,282.6,218" fill="none" stroke="#69e0dc" stroke-width="3" stroke-dasharray="3 10"/>
  </g>
</svg>
