<svg xmlns="http://www.w3.org/2000/svg" width="20" height="20.76" viewBox="0 0 20 20.76">
  <path id="Icon_awesome-arrow-right" data-name="Icon awesome-arrow-right" d="M11.5,4.038l-.991-1.055a1.022,1.022,0,0,0-1.513,0L.315,12.219a1.189,1.189,0,0,0,0,1.612l8.678,9.242a1.022,1.022,0,0,0,1.513,0l.991-1.055a1.2,1.2,0,0,0-.018-1.631L6.1,14.929H18.929A1.105,1.105,0,0,0,20,13.788V12.267a1.105,1.105,0,0,0-1.071-1.141H6.1l5.379-5.458A1.186,1.186,0,0,0,11.5,4.038Z" transform="translate(0 -2.647)" fill="#21aaa6"/>
</svg>
