<svg xmlns="http://www.w3.org/2000/svg" width="20" height="20.76" viewBox="0 0 20 20.76">
  <path id="Icon_awesome-arrow-right" data-name="Icon awesome-arrow-right" d="M8.5,4.038l.991-1.055a1.022,1.022,0,0,1,1.513,0l8.678,9.237a1.189,1.189,0,0,1,0,1.612l-8.678,9.242a1.022,1.022,0,0,1-1.513,0L8.5,22.017a1.2,1.2,0,0,1,.018-1.631L13.9,14.929H1.071A1.105,1.105,0,0,1,0,13.788V12.267a1.105,1.105,0,0,1,1.071-1.141H13.9L8.521,5.668A1.186,1.186,0,0,1,8.5,4.038Z" transform="translate(0 -2.647)" fill="#21aaa6"/>
</svg>
